<svg width="256" height="256"
    xmlns="http://www.w3.org/2000/svg" viewBox="0 0 256 256">

    <line x1="128.0" y1="201.0771639855288" x2="191.28668044798923" y2="91.46141800723558" stroke-width="7" stroke="darkgray" />
    <line x1="64.71331955201074" y1="91.4614180072356" x2="191.28668044798923" y2="91.46141800723558" stroke-width="7" stroke="darkgray" />
    <line x1="64.71331955201074" y1="91.4614180072356" x2="128.0" y2="201.0771639855288" stroke-width="7" stroke="darkgray" />

    <line x1="64.71331955201074" y1="91.4614180072356" x2="127.99999999999997" y2="9.758664869964637" stroke-width="7" stroke="darkgray" />
    <line x1="191.28668044798923" y1="91.46141800723558" x2="127.99999999999997" y2="9.758664869964637" stroke-width="7" stroke="darkgray" />
    <line x1="128.0" y1="201.0771639855288" x2="25.6" y2="187.12066756501767" stroke-width="7" stroke="darkgray" />
    <line x1="64.71331955201074" y1="91.4614180072356" x2="25.6" y2="187.12066756501767" stroke-width="7" stroke="darkgray" />
    <line x1="191.28668044798923" y1="91.46141800723558" x2="230.40000000000003" y2="187.12066756501767" stroke-width="7" stroke="darkgray" />
    <line x1="128.0" y1="201.0771639855288" x2="230.40000000000003" y2="187.12066756501767" stroke-width="7" stroke="darkgray" />

    <line x1="128.0" y1="201.0771639855288" x2="128.00000000000003" y2="246.24133513003537" stroke-width="7" stroke="darkgray" />
    <line x1="191.28668044798923" y1="91.46141800723558" x2="230.4" y2="68.87933243498232" stroke-width="7" stroke="darkgray" />
    <line x1="64.71331955201074" y1="91.4614180072356" x2="25.599999999999987" y2="68.87933243498232" stroke-width="7" stroke="darkgray" />

    <line x1="127.99999999999997" y1="9.758664869964637" x2="230.4" y2="68.87933243498232" stroke-width="7" stroke="darkgray" />
    <line x1="230.4" y1="68.87933243498232" x2="230.40000000000003" y2="187.12066756501767" stroke-width="7" stroke="darkgray" />
    <line x1="230.40000000000003" y1="187.12066756501767" x2="128.00000000000003" y2="246.24133513003537" stroke-width="7" stroke="darkgray" />
    <line x1="128.00000000000003" y1="246.24133513003537" x2="25.6" y2="187.12066756501767" stroke-width="7" stroke="darkgray" />
    <line x1="25.6" y1="187.12066756501767" x2="25.599999999999987" y2="68.87933243498232" stroke-width="7" stroke="darkgray" />
    <line x1="25.599999999999987" y1="68.87933243498232" x2="127.99999999999997" y2="9.758664869964637" stroke-width="7" stroke="darkgray" />


    <circle cx="128.0" cy="201.0771639855288" r="9" fill="black" />
    <circle cx="191.28668044798923" cy="91.46141800723558" r="9" fill="black" />
    <circle cx="64.71331955201074" cy="91.4614180072356" r="9" fill="black" />

    <circle cx="25.599999999999987" cy="68.87933243498232" r="9" fill="red" />
    <circle cx="128.00000000000003" cy="246.24133513003537" r="9" fill="green" />
    <circle cx="230.4" cy="68.87933243498232" r="9" fill="blue" />

    <circle cx="127.99999999999997" cy="9.758664869964637" r="9" fill="cyan" />
    <circle cx="230.40000000000003" cy="187.12066756501767" r="9" fill="magenta" />
    <circle cx="25.6" cy="187.12066756501767" r="9" fill="yellow" />
</svg>